<?xml version="1.0" encoding="UTF-8" standalone="no"?>
<svg
   xmlns:dc="http://purl.org/dc/elements/1.1/"
   xmlns:cc="http://creativecommons.org/ns#"
   xmlns:rdf="http://www.w3.org/1999/02/22-rdf-syntax-ns#"
   xmlns:svg="http://www.w3.org/2000/svg"
   xmlns="http://www.w3.org/2000/svg"
   xmlns:sodipodi="http://sodipodi.sourceforge.net/DTD/sodipodi-0.dtd"
   xmlns:inkscape="http://www.inkscape.org/namespaces/inkscape"
   version="1.1"
   viewBox="0 0 32 32"
   id="svg161"
   sodipodi:docname="system.svg"
   width="32"
   height="32"
   inkscape:version="0.92.4 5da689c313, 2019-01-14">
  <metadata
     id="metadata167">
    <rdf:RDF>
      <cc:Work
         rdf:about="">
        <dc:format>image/svg+xml</dc:format>
        <dc:type
           rdf:resource="http://purl.org/dc/dcmitype/StillImage" />
        <dc:title />
      </cc:Work>
    </rdf:RDF>
  </metadata>
  <defs
     id="defs165" />
  <sodipodi:namedview
     pagecolor="#ffffff"
     bordercolor="#666666"
     borderopacity="1"
     objecttolerance="10"
     gridtolerance="10"
     guidetolerance="10"
     inkscape:pageopacity="0"
     inkscape:pageshadow="2"
     inkscape:window-width="1920"
     inkscape:window-height="981"
     id="namedview163"
     showgrid="true"
     inkscape:snap-bbox="true"
     inkscape:bbox-nodes="true"
     inkscape:zoom="2"
     inkscape:cx="-43.467719"
     inkscape:cy="6.1280867"
     inkscape:window-x="0"
     inkscape:window-y="28"
     inkscape:window-maximized="1"
     inkscape:current-layer="system-log-out"
     inkscape:object-nodes="true"
     inkscape:snap-bbox-edge-midpoints="false">
    <inkscape:grid
       type="xygrid"
       id="grid1006" />
  </sodipodi:namedview>
  <style
     id="current-color-scheme"
     type="text/css">.ColorScheme-Text { color:#333333; }</style>
  <circle
     cx="98"
     cy="-162"
     r="0"
     id="circle88"
     style="fill:url(#a)" />
  <g
     id="system-log-out">
    <g
       transform="translate(0,39)"
       id="g1050">
      <circle
         style="opacity:1;fill:#ebebeb;fill-opacity:1;stroke:none;stroke-width:2.5;stroke-linecap:round;stroke-linejoin:round;stroke-miterlimit:4;stroke-dasharray:none;stroke-opacity:1"
         id="path922"
         cx="16"
         cy="-23"
         r="15" />
      <g
         id="g941"
         transform="translate(-3.9999981,-2.0000008)">
        <rect
           ry="0.5"
           y="-21"
           x="10.999998"
           height="1"
           width="18"
           id="rect1243"
           style="opacity:1;fill:#323232;fill-opacity:1;fill-rule:evenodd;stroke:none;stroke-width:2.12132049;stroke-linecap:round;stroke-linejoin:miter;stroke-miterlimit:4;stroke-dasharray:none;stroke-dashoffset:3;stroke-opacity:1;paint-order:stroke fill markers" />
        <rect
           transform="rotate(45)"
           style="opacity:1;fill:#323232;fill-opacity:1;fill-rule:evenodd;stroke:none;stroke-width:1.73205078;stroke-linecap:round;stroke-linejoin:miter;stroke-miterlimit:4;stroke-dasharray:none;stroke-dashoffset:3;stroke-opacity:1;paint-order:stroke fill markers"
           id="rect1274"
           width="12"
           height="1"
           x="-5.8437891"
           y="-35.148232"
           ry="0.5"
           rx="0" />
        <rect
           rx="0"
           ry="0.5"
           y="-6.1568537"
           x="23.147589"
           height="1"
           width="12"
           id="rect936"
           style="opacity:1;fill:#323232;fill-opacity:1;fill-rule:evenodd;stroke:none;stroke-width:1.73205078;stroke-linecap:round;stroke-linejoin:miter;stroke-miterlimit:4;stroke-dasharray:none;stroke-dashoffset:3;stroke-opacity:1;paint-order:stroke fill markers"
           transform="matrix(0.70710678,-0.70710678,-0.70710678,-0.70710678,0,0)" />
      </g>
    </g>
    <rect
       id="rect139"
       style="color:#333333;opacity:0;fill:#333333;stroke-width:2;paint-order:fill markers stroke"
       ry="0"
       rx="0"
       height="32"
       width="32"
       y="0"
       x="0" />
    <path
       style="color:#000000;overflow:visible;opacity:0;fill:#333333"
       inkscape:connector-curvature="0"
       id="path141"
       overflow="visible"
       d="M 16,0 C 7.1724,0 0,7.1724 0,16 0,24.8276 7.1724,32 16,32 24.8276,32 32,24.8276 32,16 32,7.1724 24.8276,0 16,0 Z" />
  </g>
  <g
     id="22-22-system-shutdown"
     transform="translate(-30.954742,-4.9978065)">
    <rect
       id="rect4229"
       width="22"
       height="22"
       x="-44.045258"
       y="41.997986"
       style="opacity:0.00100002;fill:currentColor;fill-opacity:1;stroke:none;stroke-width:2;stroke-linecap:round;stroke-linejoin:round;stroke-miterlimit:4;stroke-dasharray:none;stroke-opacity:1" />
    <g
       transform="translate(-5.5523806e-8,-19)"
       id="g902">
      <rect
         transform="rotate(90)"
         ry="0.5"
         y="33.500427"
         x="66"
         height="1"
         width="7"
         id="rect895"
         style="opacity:1;fill:#ebebeb;fill-opacity:1;fill-rule:evenodd;stroke:none;stroke-width:1.32287562;stroke-linecap:round;stroke-linejoin:miter;stroke-miterlimit:4;stroke-dasharray:none;stroke-dashoffset:3;stroke-opacity:1;paint-order:stroke fill markers" />
      <path
         sodipodi:open="true"
         style="opacity:1;fill:none;fill-opacity:1;fill-rule:evenodd;stroke:#ebebeb;stroke-width:1.0002377;stroke-linecap:round;stroke-linejoin:miter;stroke-miterlimit:4;stroke-dasharray:none;stroke-dashoffset:3;stroke-opacity:1;paint-order:stroke fill markers"
         id="path898"
         sodipodi:type="arc"
         sodipodi:cx="-34.000427"
         sodipodi:cy="73.500305"
         sodipodi:rx="5.9995742"
         sodipodi:ry="5.9995742"
         sodipodi:start="4.9741884"
         sodipodi:end="4.4505896"
         d="m -32.447623,67.705162 a 5.9995742,5.9995742 0 0 1 4.395443,6.578245 5.9995742,5.9995742 0 0 1 -5.948247,5.216472 5.9995742,5.9995742 0 0 1 -5.948247,-5.216472 5.9995742,5.9995742 0 0 1 4.395443,-6.578245" />
    </g>
  </g>
  <g
     id="g1071"
     transform="translate(-76.000003,-32.000456)" />
  <g
     transform="translate(-78.995827,-4.9978065)"
     id="22-22-system-reboot">
    <rect
       transform="rotate(-90)"
       id="rect4235"
       width="22"
       height="22"
       x="-64"
       y="-35.004173"
       style="opacity:0.00100002;fill:currentColor;fill-opacity:1;stroke:none;stroke-width:2;stroke-linecap:round;stroke-linejoin:round;stroke-miterlimit:4;stroke-dasharray:none;stroke-opacity:1" />
    <g
       transform="translate(2.4959759,-22.499862)"
       id="g1398">
      <rect
         style="opacity:1;fill:#ebebeb;fill-opacity:1;fill-rule:evenodd;stroke:none;stroke-width:0.99999994;stroke-linecap:round;stroke-linejoin:miter;stroke-miterlimit:4;stroke-dasharray:none;stroke-dashoffset:3;stroke-opacity:1;paint-order:stroke fill markers"
         id="rect1036"
         width="4"
         height="1"
         x="70.499626"
         y="-32.495678"
         ry="0.5"
         transform="matrix(0,1,1,0,0,0)" />
      <path
         d="m -74.648932,29.914842 a 6.0000019,6.0000019 0 0 1 7.5205,2.113023 6.0000019,6.0000019 0 0 1 -0.941731,7.754735 6.0000019,6.0000019 0 0 1 -7.807656,0.251581 6.0000019,6.0000019 0 0 1 -1.439009,-7.678023"
         sodipodi:open="true"
         sodipodi:end="3.6651914"
         sodipodi:start="4.2774268"
         sodipodi:ry="6.0000019"
         sodipodi:rx="6.0000019"
         sodipodi:cy="35.356159"
         sodipodi:cx="-72.120674"
         sodipodi:type="arc"
         id="path1343"
         style="opacity:1;fill:none;fill-opacity:1;fill-rule:evenodd;stroke:#ebebeb;stroke-width:0.99980557;stroke-linecap:round;stroke-linejoin:miter;stroke-miterlimit:4;stroke-dasharray:none;stroke-dashoffset:3;stroke-opacity:1;paint-order:stroke fill markers"
         transform="matrix(0.70708849,-0.70712507,0.70708849,0.70712507,0,0)" />
      <rect
         transform="scale(-1,1)"
         ry="0.5"
         y="73.499626"
         x="28.495678"
         height="1"
         width="4"
         id="rect1363"
         style="opacity:1;fill:#ebebeb;fill-opacity:1;fill-rule:evenodd;stroke:none;stroke-width:0.99999994;stroke-linecap:round;stroke-linejoin:miter;stroke-miterlimit:4;stroke-dasharray:none;stroke-dashoffset:3;stroke-opacity:1;paint-order:stroke fill markers" />
    </g>
  </g>
  <g
     transform="translate(-79.144531,-4.9978065)"
     id="22-22-system-suspend">
    <rect
       id="rect4222"
       width="22"
       height="22"
       x="-78.855469"
       y="41.997807"
       style="opacity:0.00100002;fill:currentColor;fill-opacity:1;stroke:none;stroke-width:2;stroke-linecap:round;stroke-linejoin:round;stroke-miterlimit:4;stroke-dasharray:none;stroke-opacity:1" />
    <g
       transform="translate(-6.6467306,-25.757286)"
       id="g1448">
      <path
         transform="matrix(-0.70710678,-0.70710678,-0.70710678,0.70710678,0,0)"
         style="opacity:1;fill:none;fill-opacity:1;fill-rule:evenodd;stroke:#ebebeb;stroke-width:0.99981856;stroke-linecap:round;stroke-linejoin:miter;stroke-miterlimit:4;stroke-dasharray:none;stroke-dashoffset:3;stroke-opacity:1;paint-order:stroke fill markers"
         id="path1021"
         sodipodi:type="arc"
         sodipodi:cx="-12.655592"
         sodipodi:cy="98.71434"
         sodipodi:rx="6.003233"
         sodipodi:ry="6.003233"
         sodipodi:start="1.2307078"
         sodipodi:end="5.0814163"
         sodipodi:open="true"
         d="m -10.65309,104.37374 a 6.003233,6.003233 0 0 1 -6.862757,-2.13566 6.003233,6.003233 0 0 1 0.103994,-7.186633 6.003233,6.003233 0 0 1 6.921678,-1.936194" />
      <path
         d="m -10.776028,104.33431 a 6.003233,6.003233 0 0 1 -3.707187,-5.659674 6.003233,6.003233 0 0 1 3.916563,-5.516856"
         sodipodi:open="true"
         sodipodi:end="4.3575754"
         sodipodi:start="1.9630727"
         sodipodi:ry="6.003233"
         sodipodi:rx="6.003233"
         sodipodi:cy="98.787079"
         sodipodi:cx="-8.4810352"
         sodipodi:type="arc"
         id="path1444"
         style="opacity:1;fill:none;fill-opacity:1;fill-rule:evenodd;stroke:#ebebeb;stroke-width:0.99981856;stroke-linecap:round;stroke-linejoin:miter;stroke-miterlimit:4;stroke-dasharray:none;stroke-dashoffset:3;stroke-opacity:1;paint-order:stroke fill markers"
         transform="matrix(-0.70710678,-0.70710678,-0.70710678,0.70710678,0,0)" />
    </g>
  </g>
  <g
     transform="translate(-78.999996,-4.9978065)"
     id="22-22-system-suspend-hibernate">
    <rect
       id="rect4248"
       width="22"
       height="22"
       x="46.999996"
       y="41.997807"
       style="opacity:0.00100002;fill:currentColor;fill-opacity:1;stroke:none;stroke-width:2;stroke-linecap:round;stroke-linejoin:round;stroke-miterlimit:4;stroke-dasharray:none;stroke-opacity:1" />
    <g
       transform="translate(8.7204299,-23.002191)"
       id="g1548">
      <g
         id="g1539"
         transform="translate(0,0.99999417)">
        <rect
           transform="rotate(-45)"
           style="opacity:1;fill:#ebebeb;fill-opacity:1;fill-rule:evenodd;stroke:none;stroke-width:1.1731019;stroke-linecap:round;stroke-linejoin:miter;stroke-miterlimit:4;stroke-dasharray:none;stroke-dashoffset:3;stroke-opacity:1;paint-order:stroke fill markers"
           id="rect1013"
           width="5.2185783"
           height="1.054822"
           x="-20.994066"
           y="84.325409"
           ry="0.52741098" />
        <rect
           ry="0.50000381"
           y="73.999992"
           x="45"
           height="1.0000076"
           width="5"
           id="rect1015"
           style="opacity:1;fill:#ebebeb;fill-opacity:1;fill-rule:evenodd;stroke:none;stroke-width:1.11803818;stroke-linecap:round;stroke-linejoin:miter;stroke-miterlimit:4;stroke-dasharray:none;stroke-dashoffset:3;stroke-opacity:1;paint-order:stroke fill markers" />
        <rect
           ry="0.49999237"
           style="opacity:1;fill:#ebebeb;fill-opacity:1;fill-rule:evenodd;stroke:none;stroke-width:0.99999231;stroke-linecap:round;stroke-linejoin:miter;stroke-miterlimit:4;stroke-dasharray:none;stroke-dashoffset:3;stroke-opacity:1;paint-order:stroke fill markers"
           id="rect1017"
           width="4"
           height="0.99998474"
           x="45"
           y="-72"
           transform="scale(1,-1)" />
      </g>
      <g
         transform="translate(111.20874,-2.755093)"
         id="g1517">
        <path
           transform="matrix(-0.70710678,-0.70710678,-0.70710678,0.70710678,0,0)"
           style="opacity:1;fill:none;fill-opacity:1;fill-rule:evenodd;stroke:#ebebeb;stroke-width:0.99981856;stroke-linecap:round;stroke-linejoin:miter;stroke-miterlimit:4;stroke-dasharray:none;stroke-dashoffset:3;stroke-opacity:1;paint-order:stroke fill markers"
           id="path1513"
           sodipodi:type="arc"
           sodipodi:cx="-12.245644"
           sodipodi:cy="99.12429"
           sodipodi:rx="6.003233"
           sodipodi:ry="6.003233"
           sodipodi:start="1.2307078"
           sodipodi:end="5.0814163"
           sodipodi:open="true"
           d="m -10.243142,104.78369 a 6.003233,6.003233 0 0 1 -6.862756,-2.13566 6.003233,6.003233 0 0 1 0.103993,-7.186632 6.003233,6.003233 0 0 1 6.921678,-1.936195" />
        <path
           d="m -10.36608,104.74426 a 6.003233,6.003233 0 0 1 -3.707187,-5.659673 6.003233,6.003233 0 0 1 3.916564,-5.516857"
           sodipodi:open="true"
           sodipodi:end="4.3575754"
           sodipodi:start="1.9630727"
           sodipodi:ry="6.003233"
           sodipodi:rx="6.003233"
           sodipodi:cy="99.197029"
           sodipodi:cx="-8.0710869"
           sodipodi:type="arc"
           id="path1515"
           style="opacity:1;fill:none;fill-opacity:1;fill-rule:evenodd;stroke:#ebebeb;stroke-width:0.99981856;stroke-linecap:round;stroke-linejoin:miter;stroke-miterlimit:4;stroke-dasharray:none;stroke-dashoffset:3;stroke-opacity:1;paint-order:stroke fill markers"
           transform="matrix(-0.70710678,-0.70710678,-0.70710678,0.70710678,0,0)" />
      </g>
    </g>
  </g>
  <g
     transform="translate(-79,-4.9978065)"
     id="22-22-system-lock-screen">
    <rect
       id="rect4255"
       width="22"
       height="22"
       x="128"
       y="41.997807"
       style="opacity:0.00100002;fill:currentColor;fill-opacity:1;stroke:none;stroke-width:2;stroke-linecap:round;stroke-linejoin:round;stroke-miterlimit:4;stroke-dasharray:none;stroke-opacity:1" />
    <g
       transform="translate(-13,-57.002193)"
       id="g1697">
      <path
         inkscape:connector-curvature="0"
         style="opacity:1;fill:#ebebeb;fill-opacity:1;stroke:none;stroke-width:0.45825762;stroke-miterlimit:4;stroke-dasharray:none;stroke-opacity:1"
         d="m 152.5,101 c -2.493,0 -4.5,2.007 -4.5,4.5 v 3.63301 h 1 V 105.5 c 0,-1.939 1.561,-3.5 3.5,-3.5 1.939,0 3.5,1.561 3.5,3.5 v 3.63301 h 1 V 105.5 c 0,-2.493 -2.007,-4.5 -4.5,-4.5 z"
         id="rect1584"
         sodipodi:nodetypes="ssccsssccss" />
      <path
         id="path1680"
         d="M 146,109.00219 V 117 h 13 v -7.99781 z m 1,1 h 11 V 116 h -11 z"
         style="opacity:1;fill:#ebebeb;fill-opacity:1;stroke:none;stroke-width:0.38944405;stroke-miterlimit:4;stroke-dasharray:none;stroke-opacity:1"
         inkscape:connector-curvature="0"
         sodipodi:nodetypes="cccccccccc" />
    </g>
  </g>
  <g
     transform="translate(-79.054535,-4.9978065)"
     id="22-22-system-switch-user">
    <rect
       id="rect4220"
       width="22"
       height="22"
       x="169.05453"
       y="41.997807"
       style="opacity:0.00100002;fill:currentColor;fill-opacity:1;stroke:none;stroke-width:2;stroke-linecap:round;stroke-linejoin:round;stroke-miterlimit:4;stroke-dasharray:none;stroke-opacity:1" />
    <g
       transform="translate(5.4997,-18)"
       id="g1797">
      <path
         style="opacity:1;fill:#ebebeb;fill-opacity:1;stroke:none;stroke-width:1.59999979;stroke-miterlimit:4;stroke-dasharray:none;stroke-opacity:1"
         d="m 174.5003,65 a 4,4 0 0 0 -4,4 4,4 0 0 0 4,4 4,4 0 0 0 4,-4 4,4 0 0 0 -4,-4 z m 0,1 a 3,3 0 0 1 3,3 3,3 0 0 1 -3,3 3,3 0 0 1 -3,-3 3,3 0 0 1 3,-3 z"
         id="path1784"
         inkscape:connector-curvature="0" />
      <path
         id="circle1786"
         style="opacity:1;fill:none;fill-opacity:1;stroke:#ebebeb;stroke-width:1.00021005;stroke-linecap:round;stroke-miterlimit:4;stroke-dasharray:none;stroke-opacity:1"
         sodipodi:type="arc"
         sodipodi:cx="174.5"
         sodipodi:cy="78.5"
         sodipodi:rx="5.9998951"
         sodipodi:ry="5.9998951"
         sodipodi:start="3.3106179"
         sodipodi:end="6.114761"
         sodipodi:open="true"
         d="m 168.58561,77.490688 a 5.9998951,5.9998951 0 0 1 5.91619,-4.990583 5.9998951,5.9998951 0 0 1 5.9132,4.994138" />
    </g>
  </g>
  <g
     id="system-suspend">
    <g
       transform="translate(0,39)"
       id="g966">
      <circle
         r="15"
         cy="-23"
         cx="-142"
         id="circle1079"
         style="opacity:1;fill:#ebebeb;fill-opacity:1;stroke:none;stroke-width:2.5;stroke-linecap:round;stroke-linejoin:round;stroke-miterlimit:4;stroke-dasharray:none;stroke-opacity:1" />
      <g
         id="g1089"
         transform="translate(-33.68397,-0.26703673)">
        <g
           id="g959">
          <path
             d="m 95.911607,68.4725 a 8.388711,8.388711 0 0 1 -9.308644,-3.014647 8.388711,8.388711 0 0 1 -0.120061,-9.783892 8.388711,8.388711 0 0 1 9.231865,-3.242162"
             sodipodi:open="true"
             sodipodi:end="4.9973172"
             sodipodi:start="1.2613268"
             sodipodi:ry="8.388711"
             sodipodi:rx="8.388711"
             sodipodi:cy="60.482292"
             sodipodi:cx="93.356796"
             sodipodi:type="arc"
             id="path1428"
             style="opacity:1;fill:none;fill-opacity:1;fill-rule:evenodd;stroke:#323232;stroke-width:1;stroke-linecap:round;stroke-linejoin:miter;stroke-miterlimit:4;stroke-dasharray:none;stroke-dashoffset:3;stroke-opacity:1;paint-order:stroke fill markers"
             transform="matrix(-0.70710678,-0.70710678,-0.70710678,0.70710678,0,0)" />
          <path
             transform="matrix(-0.70710678,-0.70710678,-0.70710678,0.70710678,0,0)"
             style="opacity:1;fill:none;fill-opacity:1;fill-rule:evenodd;stroke:#323232;stroke-width:1;stroke-linecap:round;stroke-linejoin:miter;stroke-miterlimit:4;stroke-dasharray:none;stroke-dashoffset:3;stroke-opacity:1;paint-order:stroke fill markers"
             id="path1430"
             sodipodi:type="arc"
             sodipodi:cx="100.17551"
             sodipodi:cy="60.42551"
             sodipodi:rx="9.1605988"
             sodipodi:ry="9.1605988"
             sodipodi:start="2.0627022"
             sodipodi:end="4.1887902"
             sodipodi:open="true"
             d="m 95.848895,68.499976 a 9.1605988,9.1605988 0 0 1 -4.832837,-7.929309 9.1605988,9.1605988 0 0 1 4.579149,-8.078468" />
        </g>
      </g>
    </g>
    <rect
       style="color:#333333;opacity:0;fill:#333333;stroke-width:2"
       id="rect92"
       ry="0"
       rx="0"
       height="32"
       width="32"
       y="0"
       x="-158" />
    <path
       style="color:#000000;overflow:visible;opacity:0;fill:#333333"
       inkscape:connector-curvature="0"
       id="path94"
       overflow="visible"
       d="m -142,0 c -8.8276,0 -16,7.1724 -16,16 0,8.8276 7.1724,16 16,16 8.8276,0 16,-7.1724 16,-16 0,-8.8276 -7.1724,-16 -16,-16 z" />
  </g>
  <g
     id="system-reboot">
    <g
       transform="translate(0,39)"
       id="g1182">
      <circle
         style="opacity:1;fill:#ebebeb;fill-opacity:1;stroke:none;stroke-width:2.5;stroke-linecap:round;stroke-linejoin:round;stroke-miterlimit:4;stroke-dasharray:none;stroke-opacity:1"
         id="circle1139"
         cx="-102"
         cy="-23"
         r="15" />
      <g
         id="g1147">
        <rect
           style="opacity:1;fill:#323232;fill-opacity:1;fill-rule:evenodd;stroke:none;stroke-width:1.11803389;stroke-linecap:round;stroke-linejoin:miter;stroke-miterlimit:4;stroke-dasharray:none;stroke-dashoffset:3;stroke-opacity:1;paint-order:stroke fill markers"
           id="rect1370"
           width="5"
           height="1"
           x="-30"
           y="-111"
           ry="0.5"
           transform="matrix(0,1,1,0,0,0)" />
        <path
           d="m -59.613458,-96.022283 a 8.5031691,8.5031691 0 0 1 10.746874,2.800299 8.5031691,8.5031691 0 0 1 -1.18905,11.041882 8.5031691,8.5031691 0 0 1 -11.096676,0.448066 8.5031691,8.5031691 0 0 1 -2.075435,-10.910067"
           sodipodi:open="true"
           sodipodi:end="3.6651914"
           sodipodi:start="4.2557058"
           sodipodi:ry="8.5031691"
           sodipodi:rx="8.5031691"
           sodipodi:cy="-88.390518"
           sodipodi:cx="-55.863785"
           sodipodi:type="arc"
           id="path1372"
           style="opacity:1;fill:none;fill-opacity:1;fill-rule:evenodd;stroke:#323232;stroke-width:0.99994916;stroke-linecap:round;stroke-linejoin:miter;stroke-miterlimit:4;stroke-dasharray:none;stroke-dashoffset:3;stroke-opacity:1;paint-order:stroke fill markers"
           transform="rotate(-45)" />
        <rect
           transform="scale(-1,1)"
           ry="0.5"
           y="-26"
           x="106"
           height="1"
           width="5"
           id="rect1374"
           style="opacity:1;fill:#323232;fill-opacity:1;fill-rule:evenodd;stroke:none;stroke-width:1.11803389;stroke-linecap:round;stroke-linejoin:miter;stroke-miterlimit:4;stroke-dasharray:none;stroke-dashoffset:3;stroke-opacity:1;paint-order:stroke fill markers" />
      </g>
    </g>
    <rect
       style="color:#333333;opacity:0;fill:#333333;stroke-width:2"
       id="rect101"
       ry="0"
       rx="0"
       height="32"
       width="32"
       y="0"
       x="-118" />
    <path
       style="color:#000000;overflow:visible;opacity:0;fill:#333333"
       inkscape:connector-curvature="0"
       id="path103"
       overflow="visible"
       d="m -102,0 c -8.8286,0 -16,7.1714 -16,16 0,8.8286 7.1714,16 16,16 8.8275,0 16,-7.1714 16,-16 0,-8.8275 -7.1714,-16 -16,-16 z" />
  </g>
  <g
     id="system-shutdown">
    <g
       transform="translate(3.8146973e-4,39)"
       id="g1003">
      <circle
         r="15"
         cy="-23"
         cx="-62.000381"
         id="circle1204"
         style="opacity:1;fill:#ebebeb;fill-opacity:1;stroke:none;stroke-width:2.5;stroke-linecap:round;stroke-linejoin:round;stroke-miterlimit:4;stroke-dasharray:none;stroke-opacity:1" />
      <g
         id="g1229"
         transform="translate(-1.0003797)">
        <rect
           style="opacity:1;fill:#323232;fill-opacity:1;fill-rule:evenodd;stroke:none;stroke-width:0.99299997;stroke-linecap:round;stroke-linejoin:miter;stroke-miterlimit:4;stroke-dasharray:none;stroke-dashoffset:3;stroke-opacity:1;paint-order:stroke fill markers"
           id="rect1207"
           width="7.9477205"
           height="0.99346507"
           x="-33"
           y="60.503269"
           ry="0.49673253"
           transform="rotate(90)" />
        <path
           d="m -56.749895,-30.361397 a 8.5002098,8.5002098 0 0 1 3.960467,9.561413 A 8.5002098,8.5002098 0 0 1 -61,-14.49979 a 8.5002098,8.5002098 0 0 1 -8.210572,-6.300194 8.5002098,8.5002098 0 0 1 3.960467,-9.561414"
           sodipodi:open="true"
           sodipodi:end="4.1887902"
           sodipodi:start="5.2359878"
           sodipodi:ry="8.5002098"
           sodipodi:rx="8.5002098"
           sodipodi:cy="-23"
           sodipodi:cx="-61"
           sodipodi:type="arc"
           id="path1209"
           style="opacity:1;fill:none;fill-opacity:1;fill-rule:evenodd;stroke:#323232;stroke-width:0.99957985;stroke-linecap:round;stroke-linejoin:miter;stroke-miterlimit:4;stroke-dasharray:none;stroke-dashoffset:3;stroke-opacity:1;paint-order:stroke fill markers" />
      </g>
    </g>
    <rect
       id="rect119"
       style="color:#333333;opacity:0;fill:#333333;stroke-width:2;paint-order:fill markers stroke"
       ry="0"
       rx="0"
       height="32"
       width="32"
       y="0"
       x="-78" />
    <path
       style="color:#000000;overflow:visible;opacity:0;fill:#333333"
       inkscape:connector-curvature="0"
       id="path121"
       overflow="visible"
       d="m -62,0 c -8.8286,0 -16,7.1714 -16,16 0,8.8286 7.1714,16 16,16 8.8286,0 16,-7.1714 16,-16 0,-8.8286 -7.1714,-16 -16,-16 z" />
  </g>
  <g
     id="system-suspend-hibernate">
    <g
       transform="translate(3.8146973e-6,39)"
       id="g1025">
      <circle
         style="opacity:1;fill:#ebebeb;fill-opacity:1;stroke:none;stroke-width:2.5;stroke-linecap:round;stroke-linejoin:round;stroke-miterlimit:4;stroke-dasharray:none;stroke-opacity:1"
         id="circle1307"
         cx="-22.000004"
         cy="-23"
         r="15" />
      <g
         transform="translate(86.31603,-0.26703673)"
         id="g1313">
        <path
           d="m 95.911607,68.4725 a 8.388711,8.388711 0 0 1 -9.308644,-3.014647 8.388711,8.388711 0 0 1 -0.120061,-9.783892 8.388711,8.388711 0 0 1 9.231865,-3.242162"
           sodipodi:open="true"
           sodipodi:end="4.9973172"
           sodipodi:start="1.2613268"
           sodipodi:ry="8.388711"
           sodipodi:rx="8.388711"
           sodipodi:cy="60.482292"
           sodipodi:cx="93.356796"
           sodipodi:type="arc"
           id="path1309"
           style="opacity:1;fill:none;fill-opacity:1;fill-rule:evenodd;stroke:#323232;stroke-width:1;stroke-linecap:round;stroke-linejoin:miter;stroke-miterlimit:4;stroke-dasharray:none;stroke-dashoffset:3;stroke-opacity:1;paint-order:stroke fill markers"
           transform="matrix(-0.70710678,-0.70710678,-0.70710678,0.70710678,0,0)" />
        <path
           transform="matrix(-0.70710678,-0.70710678,-0.70710678,0.70710678,0,0)"
           style="opacity:1;fill:none;fill-opacity:1;fill-rule:evenodd;stroke:#323232;stroke-width:1;stroke-linecap:round;stroke-linejoin:miter;stroke-miterlimit:4;stroke-dasharray:none;stroke-dashoffset:3;stroke-opacity:1;paint-order:stroke fill markers"
           id="path1311"
           sodipodi:type="arc"
           sodipodi:cx="100.17551"
           sodipodi:cy="60.42551"
           sodipodi:rx="9.1605988"
           sodipodi:ry="9.1605988"
           sodipodi:start="2.0627022"
           sodipodi:end="4.1887902"
           sodipodi:open="true"
           d="m 95.848895,68.499976 a 9.1605988,9.1605988 0 0 1 -4.832837,-7.929309 9.1605988,9.1605988 0 0 1 4.579149,-8.078468" />
      </g>
      <g
         id="g1323"
         transform="translate(2)">
        <rect
           style="opacity:1;fill:#323232;fill-opacity:1;fill-rule:evenodd;stroke:none;stroke-width:1.22474945;stroke-linecap:round;stroke-linejoin:miter;stroke-miterlimit:4;stroke-dasharray:none;stroke-dashoffset:3;stroke-opacity:1;paint-order:stroke fill markers"
           id="rect1471"
           width="6"
           height="1.0000076"
           x="-31"
           y="-25"
           ry="0.50000381" />
        <rect
           transform="scale(1,-1)"
           y="29"
           x="-31"
           height="0.99998474"
           width="6"
           id="rect1473"
           style="opacity:1;fill:#323232;fill-opacity:1;fill-rule:evenodd;stroke:none;stroke-width:1.22473562;stroke-linecap:round;stroke-linejoin:miter;stroke-miterlimit:4;stroke-dasharray:none;stroke-dashoffset:3;stroke-opacity:1;paint-order:stroke fill markers"
           ry="0.49999237" />
        <rect
           ry="0.50413871"
           style="opacity:1;fill:#323232;fill-opacity:1;fill-rule:evenodd;stroke:none;stroke-width:1.42593062;stroke-linecap:round;stroke-linejoin:miter;stroke-miterlimit:4;stroke-dasharray:none;stroke-dashoffset:3;stroke-opacity:1;paint-order:stroke fill markers"
           id="rect1318"
           width="8.0663424"
           height="1.0082774"
           x="-4.7402778"
           y="38.386734"
           transform="matrix(0.70710678,-0.70710678,-0.70710678,-0.70710678,0,0)" />
      </g>
    </g>
    <rect
       style="color:#333333;opacity:0;fill:#333333;stroke-width:2"
       id="rect132"
       ry="0"
       rx="0"
       height="32"
       width="32"
       y="0"
       x="-38" />
    <circle
       style="color:#333333;opacity:0;fill:#333333"
       id="circle134"
       r="16"
       cy="16"
       cx="-22" />
  </g>
  <g
     id="system-lock-screen">
    <g
       transform="translate(0,39)"
       id="g1068">
      <circle
         r="15"
         cy="-23"
         cx="58"
         id="circle1383"
         style="opacity:1;fill:#ebebeb;fill-opacity:1;stroke:none;stroke-width:2.5;stroke-linecap:round;stroke-linejoin:round;stroke-miterlimit:4;stroke-dasharray:none;stroke-opacity:1" />
      <path
         sodipodi:nodetypes="cccccccccc"
         inkscape:connector-curvature="0"
         style="opacity:1;fill:#323232;fill-opacity:1;stroke:none;stroke-width:0.80622578;stroke-miterlimit:4;stroke-dasharray:none;stroke-opacity:1"
         d="m 49,-23 v 9 h 18 v -9 z m 1,1 h 16 v 7 H 50 Z"
         id="rect1564" />
      <path
         style="opacity:1;fill:#323232;fill-opacity:1;stroke:none;stroke-width:1.09544516;stroke-linecap:round;stroke-linejoin:round;stroke-miterlimit:4;stroke-dasharray:none;stroke-opacity:1"
         d="m 58,-34 c -3.324,0 -6,2.676 -6,6 v 5 h 1 v -5 c 0,-2.77 2.23,-5 5,-5 2.77,0 5,2.23 5,5 v 5 h 1 v -5 c 0,-3.324 -2.676,-6 -6,-6 z"
         id="rect1389"
         inkscape:connector-curvature="0"
         sodipodi:nodetypes="ssccsssccss" />
    </g>
    <rect
       x="42"
       y="0"
       width="32"
       height="32"
       rx="0"
       ry="0"
       style="color:#333333;opacity:0;fill:#333333;stroke-width:2;paint-order:fill markers stroke"
       id="rect152" />
    <path
       d="M 58,0 C 49.1724,0 42,7.1724 42,16 42,24.8276 49.1724,32 58,32 66.8276,32 74,24.8276 74,16 74,7.1724 66.8276,0 58,0 Z"
       overflow="visible"
       id="path154"
       inkscape:connector-curvature="0"
       style="color:#000000;overflow:visible;opacity:0;fill:#333333" />
  </g>
  <g
     id="system-switch-user">
    <g
       transform="translate(0,39)"
       id="g1090">
      <circle
         style="opacity:1;fill:#ebebeb;fill-opacity:1;stroke:none;stroke-width:2.5;stroke-linecap:round;stroke-linejoin:round;stroke-miterlimit:4;stroke-dasharray:none;stroke-opacity:1"
         id="circle1439"
         cx="101"
         cy="-23"
         r="15" />
      <g
         id="g1479"
         transform="translate(0,1.560341e-6)">
        <g
           id="g1471">
          <rect
             style="opacity:1;fill:#323232;fill-opacity:1;stroke:none;stroke-width:0.73029673;stroke-miterlimit:4;stroke-dasharray:none;stroke-opacity:1"
             id="rect1715"
             width="16"
             height="1"
             x="93"
             y="-25"
             ry="0.5" />
          <rect
             style="opacity:1;fill:#323232;fill-opacity:1;fill-rule:evenodd;stroke:none;stroke-width:1.2247448;stroke-linecap:round;stroke-linejoin:miter;stroke-miterlimit:4;stroke-dasharray:none;stroke-dashoffset:3;stroke-opacity:1;paint-order:stroke fill markers"
             id="rect1725"
             width="6"
             height="1"
             x="76.213158"
             y="-75.967781"
             ry="0.5"
             rx="0"
             transform="rotate(30)" />
        </g>
        <g
           id="g1467">
          <rect
             ry="0.5"
             y="21.000002"
             x="-109"
             height="1"
             width="16"
             id="rect1461"
             style="opacity:1;fill:#323232;fill-opacity:1;stroke:none;stroke-width:0.73029673;stroke-miterlimit:4;stroke-dasharray:none;stroke-opacity:1"
             transform="scale(-1)" />
          <rect
             transform="rotate(-150)"
             rx="0"
             ry="0.5"
             y="64.869392"
             x="-75.723976"
             height="1"
             width="6"
             id="rect1463"
             style="opacity:1;fill:#323232;fill-opacity:1;fill-rule:evenodd;stroke:none;stroke-width:1.2247448;stroke-linecap:round;stroke-linejoin:miter;stroke-miterlimit:4;stroke-dasharray:none;stroke-dashoffset:3;stroke-opacity:1;paint-order:stroke fill markers" />
        </g>
      </g>
    </g>
    <rect
       style="color:#333333;opacity:0;fill:#333333;stroke-width:2"
       id="rect110"
       ry="0"
       rx="0"
       height="32"
       width="32"
       y="0"
       x="85" />
    <circle
       style="color:#333333;opacity:0;fill:#333333"
       id="circle112"
       r="16"
       cy="16"
       cx="101" />
  </g>
  <g
     id="22-22-system-log-out"
     transform="translate(-1.4995498)">
    <rect
       transform="scale(-1,1)"
       id="rect4242"
       width="22"
       height="22"
       x="-32"
       y="37"
       style="opacity:0.00100002;fill:currentColor;fill-opacity:1;stroke:none;stroke-width:2;stroke-linecap:round;stroke-linejoin:round;stroke-miterlimit:4;stroke-dasharray:none;stroke-opacity:1" />
    <g
       transform="translate(0,-1)"
       id="g981">
      <rect
         ry="0.5"
         y="48"
         x="15"
         height="1"
         width="12.000001"
         id="rect881"
         style="opacity:1;fill:#ebebeb;fill-opacity:1;fill-rule:evenodd;stroke:none;stroke-width:1.7320509;stroke-linecap:round;stroke-linejoin:miter;stroke-miterlimit:4;stroke-dasharray:none;stroke-dashoffset:3;stroke-opacity:1;paint-order:stroke fill markers" />
      <rect
         ry="0.49999619"
         y="15.056353"
         x="46.532368"
         height="0.99999237"
         width="7"
         id="rect1054"
         style="opacity:1;fill:#ebebeb;fill-opacity:1;fill-rule:evenodd;stroke:none;stroke-width:1.32287061;stroke-linecap:round;stroke-linejoin:miter;stroke-miterlimit:4;stroke-dasharray:none;stroke-dashoffset:3;stroke-opacity:1;paint-order:stroke fill markers"
         transform="rotate(45)" />
      <rect
         transform="matrix(0.70710678,-0.70710678,-0.70710678,-0.70710678,0,0)"
         style="opacity:1;fill:#ebebeb;fill-opacity:1;fill-rule:evenodd;stroke:none;stroke-width:1.32287061;stroke-linecap:round;stroke-linejoin:miter;stroke-miterlimit:4;stroke-dasharray:none;stroke-dashoffset:3;stroke-opacity:1;paint-order:stroke fill markers"
         id="rect976"
         width="7"
         height="0.99999237"
         x="-22.05699"
         y="-53.533005"
         ry="0.49999619" />
    </g>
  </g>
</svg>
